<mxfile host="65bd71144e">
    <diagram id="ezGQYY76CnPRP2FsOGGO" name="Page-1">
        <mxGraphModel dx="832" dy="649" grid="1" gridSize="10" guides="1" tooltips="1" connect="1" arrows="1" fold="1" page="1" pageScale="1" pageWidth="1169" pageHeight="827" math="0" shadow="0">
            <root>
                <mxCell id="0"/>
                <mxCell id="1" parent="0"/>
                <mxCell id="167" value="Toolbar" style="rounded=0;whiteSpace=wrap;html=1;" vertex="1" parent="1">
                    <mxGeometry x="45" y="41" width="240" height="738" as="geometry"/>
                </mxCell>
                <mxCell id="168" value="Navigation" style="rounded=0;whiteSpace=wrap;html=1;" vertex="1" parent="1">
                    <mxGeometry x="285" y="41" width="840" height="60" as="geometry"/>
                </mxCell>
                <mxCell id="169" value="" style="rounded=0;whiteSpace=wrap;html=1;" vertex="1" parent="1">
                    <mxGeometry x="285" y="101" width="840" height="678" as="geometry"/>
                </mxCell>
                <mxCell id="170" value="" style="rounded=1;whiteSpace=wrap;html=1;arcSize=2;fillStyle=hatch;gradientColor=none;fillColor=#FFFFFF;" vertex="1" parent="1">
                    <mxGeometry x="305" y="121" width="50" height="50" as="geometry"/>
                </mxCell>
                <mxCell id="171" value="&lt;font style=&quot;font-size: 22px;&quot;&gt;PROJECT_NAME&lt;/font&gt;" style="rounded=0;whiteSpace=wrap;html=1;fillStyle=auto;fillColor=none;gradientColor=none;align=left;strokeColor=none;fontSize=22;verticalAlign=middle;" vertex="1" parent="1">
                    <mxGeometry x="365" y="121" width="170" height="50" as="geometry"/>
                </mxCell>
                <mxCell id="172" value="Summary" style="text;html=1;align=center;verticalAlign=middle;resizable=0;points=[];autosize=1;strokeColor=none;fillColor=none;" vertex="1" parent="1">
                    <mxGeometry x="305" y="191" width="70" height="30" as="geometry"/>
                </mxCell>
                <mxCell id="173" value="Board" style="text;html=1;align=center;verticalAlign=middle;resizable=0;points=[];autosize=1;strokeColor=none;fillColor=none;" vertex="1" parent="1">
                    <mxGeometry x="375" y="191" width="60" height="30" as="geometry"/>
                </mxCell>
                <mxCell id="174" value="List" style="text;html=1;align=center;verticalAlign=middle;resizable=0;points=[];autosize=1;strokeColor=none;fillColor=none;" vertex="1" parent="1">
                    <mxGeometry x="435" y="191" width="40" height="30" as="geometry"/>
                </mxCell>
                <mxCell id="175" value="People" style="text;html=1;align=center;verticalAlign=middle;resizable=0;points=[];autosize=1;strokeColor=none;fillColor=none;" vertex="1" parent="1">
                    <mxGeometry x="475" y="191" width="60" height="30" as="geometry"/>
                </mxCell>
                <mxCell id="176" value="Calendar" style="text;html=1;align=center;verticalAlign=middle;resizable=0;points=[];autosize=1;strokeColor=none;fillColor=none;" vertex="1" parent="1">
                    <mxGeometry x="535" y="191" width="70" height="30" as="geometry"/>
                </mxCell>
                <mxCell id="177" value="" style="rounded=1;whiteSpace=wrap;html=1;fillStyle=auto;fillColor=none;" vertex="1" parent="1">
                    <mxGeometry x="481.25" y="193.25" width="47.5" height="25.5" as="geometry"/>
                </mxCell>
                <mxCell id="178" value="People on project" style="text;html=1;align=center;verticalAlign=middle;resizable=0;points=[];autosize=1;strokeColor=none;fillColor=none;fontSize=18;" vertex="1" parent="1">
                    <mxGeometry x="305" y="246" width="160" height="40" as="geometry"/>
                </mxCell>
                <mxCell id="179" value="Add People" style="rounded=1;whiteSpace=wrap;html=1;fontSize=12;" vertex="1" parent="1">
                    <mxGeometry x="1035" y="241" width="70" height="50" as="geometry"/>
                </mxCell>
                <mxCell id="180" value="" style="rounded=1;whiteSpace=wrap;html=1;fontSize=12;" vertex="1" parent="1">
                    <mxGeometry x="305" y="311" width="800" height="70" as="geometry"/>
                </mxCell>
                <mxCell id="181" value="Filters" style="rounded=1;whiteSpace=wrap;html=1;fontSize=12;" vertex="1" parent="1">
                    <mxGeometry x="325" y="331" width="70" height="30" as="geometry"/>
                </mxCell>
                <mxCell id="182" value="Search" style="rounded=1;whiteSpace=wrap;html=1;fontSize=12;" vertex="1" parent="1">
                    <mxGeometry x="1015" y="331" width="70" height="30" as="geometry"/>
                </mxCell>
                <mxCell id="183" value="" style="rounded=1;whiteSpace=wrap;html=1;fontSize=12;arcSize=2;" vertex="1" parent="1">
                    <mxGeometry x="305" y="401" width="800" height="350" as="geometry"/>
                </mxCell>
                <mxCell id="184" value="" style="ellipse;whiteSpace=wrap;html=1;fontSize=12;fillColor=#FFFFFF;fillStyle=hatch;" vertex="1" parent="1">
                    <mxGeometry x="325" y="450" width="20" height="20" as="geometry"/>
                </mxCell>
                <mxCell id="185" value="Name" style="text;html=1;align=left;verticalAlign=middle;resizable=0;points=[];autosize=1;strokeColor=none;fillColor=none;fontSize=12;" vertex="1" parent="1">
                    <mxGeometry x="325" y="411" width="60" height="30" as="geometry"/>
                </mxCell>
                <mxCell id="186" value="User ID" style="text;html=1;align=left;verticalAlign=middle;resizable=0;points=[];autosize=1;strokeColor=none;fillColor=none;fontSize=12;" vertex="1" parent="1">
                    <mxGeometry x="520" y="411" width="60" height="30" as="geometry"/>
                </mxCell>
                <mxCell id="187" value="USER_NAME" style="text;html=1;align=left;verticalAlign=middle;resizable=0;points=[];autosize=1;strokeColor=none;fillColor=none;fontSize=6;" vertex="1" parent="1">
                    <mxGeometry x="355" y="450" width="60" height="20" as="geometry"/>
                </mxCell>
                <mxCell id="189" value="USER_ID" style="text;html=1;align=left;verticalAlign=middle;resizable=0;points=[];autosize=1;strokeColor=none;fillColor=none;fontSize=6;" vertex="1" parent="1">
                    <mxGeometry x="525" y="450" width="50" height="20" as="geometry"/>
                </mxCell>
                <mxCell id="190" value="Email" style="text;html=1;align=left;verticalAlign=middle;resizable=0;points=[];autosize=1;strokeColor=none;fillColor=none;fontSize=12;" vertex="1" parent="1">
                    <mxGeometry x="650" y="411" width="50" height="30" as="geometry"/>
                </mxCell>
                <mxCell id="192" value="Role" style="text;html=1;align=center;verticalAlign=middle;resizable=0;points=[];autosize=1;strokeColor=none;fillColor=none;fontSize=12;" vertex="1" parent="1">
                    <mxGeometry x="830" y="411" width="50" height="30" as="geometry"/>
                </mxCell>
                <mxCell id="193" value="ISSUE_ID" style="text;html=1;align=center;verticalAlign=middle;resizable=0;points=[];autosize=1;strokeColor=none;fillColor=none;fontSize=6;" vertex="1" parent="1">
                    <mxGeometry x="830" y="450" width="50" height="20" as="geometry"/>
                </mxCell>
                <mxCell id="200" value="Assignation Date" style="text;html=1;align=left;verticalAlign=middle;resizable=0;points=[];autosize=1;strokeColor=none;fillColor=none;fontSize=12;" vertex="1" parent="1">
                    <mxGeometry x="945" y="411" width="110" height="30" as="geometry"/>
                </mxCell>
                <mxCell id="201" value="ASSIGNATION_DATE" style="text;html=1;align=left;verticalAlign=middle;resizable=0;points=[];autosize=1;strokeColor=none;fillColor=none;fontSize=6;" vertex="1" parent="1">
                    <mxGeometry x="945" y="450" width="80" height="20" as="geometry"/>
                </mxCell>
                <mxCell id="202" value="" style="ellipse;whiteSpace=wrap;html=1;fontSize=12;fillColor=#FFFFFF;fillStyle=hatch;" vertex="1" parent="1">
                    <mxGeometry x="325" y="500" width="20" height="20" as="geometry"/>
                </mxCell>
                <mxCell id="203" value="USER_NAME" style="text;html=1;align=left;verticalAlign=middle;resizable=0;points=[];autosize=1;strokeColor=none;fillColor=none;fontSize=6;" vertex="1" parent="1">
                    <mxGeometry x="355" y="500" width="60" height="20" as="geometry"/>
                </mxCell>
                <mxCell id="205" value="USER_ID" style="text;html=1;align=left;verticalAlign=middle;resizable=0;points=[];autosize=1;strokeColor=none;fillColor=none;fontSize=6;" vertex="1" parent="1">
                    <mxGeometry x="525" y="500" width="50" height="20" as="geometry"/>
                </mxCell>
                <mxCell id="207" value="ISSUE_ID" style="text;html=1;align=center;verticalAlign=middle;resizable=0;points=[];autosize=1;strokeColor=none;fillColor=none;fontSize=6;" vertex="1" parent="1">
                    <mxGeometry x="830" y="500" width="50" height="20" as="geometry"/>
                </mxCell>
                <mxCell id="211" value="ASSIGNATION_DATE" style="text;html=1;align=left;verticalAlign=middle;resizable=0;points=[];autosize=1;strokeColor=none;fillColor=none;fontSize=6;" vertex="1" parent="1">
                    <mxGeometry x="945" y="500" width="80" height="20" as="geometry"/>
                </mxCell>
                <mxCell id="212" value="" style="ellipse;whiteSpace=wrap;html=1;fontSize=12;fillColor=#FFFFFF;fillStyle=hatch;" vertex="1" parent="1">
                    <mxGeometry x="325" y="550" width="20" height="20" as="geometry"/>
                </mxCell>
                <mxCell id="213" value="USER_NAME" style="text;html=1;align=left;verticalAlign=middle;resizable=0;points=[];autosize=1;strokeColor=none;fillColor=none;fontSize=6;" vertex="1" parent="1">
                    <mxGeometry x="355" y="550" width="60" height="20" as="geometry"/>
                </mxCell>
                <mxCell id="215" value="USER_ID" style="text;html=1;align=left;verticalAlign=middle;resizable=0;points=[];autosize=1;strokeColor=none;fillColor=none;fontSize=6;" vertex="1" parent="1">
                    <mxGeometry x="525" y="550" width="50" height="20" as="geometry"/>
                </mxCell>
                <mxCell id="217" value="ISSUE_ID" style="text;html=1;align=center;verticalAlign=middle;resizable=0;points=[];autosize=1;strokeColor=none;fillColor=none;fontSize=6;" vertex="1" parent="1">
                    <mxGeometry x="830" y="550" width="50" height="20" as="geometry"/>
                </mxCell>
                <mxCell id="221" value="ASSIGNATION_DATE" style="text;html=1;align=left;verticalAlign=middle;resizable=0;points=[];autosize=1;strokeColor=none;fillColor=none;fontSize=6;" vertex="1" parent="1">
                    <mxGeometry x="945" y="550" width="80" height="20" as="geometry"/>
                </mxCell>
                <mxCell id="222" value="" style="ellipse;whiteSpace=wrap;html=1;fontSize=12;fillColor=#FFFFFF;fillStyle=hatch;" vertex="1" parent="1">
                    <mxGeometry x="325" y="600" width="20" height="20" as="geometry"/>
                </mxCell>
                <mxCell id="223" value="USER_NAME" style="text;html=1;align=left;verticalAlign=middle;resizable=0;points=[];autosize=1;strokeColor=none;fillColor=none;fontSize=6;" vertex="1" parent="1">
                    <mxGeometry x="355" y="600" width="60" height="20" as="geometry"/>
                </mxCell>
                <mxCell id="225" value="USER_ID" style="text;html=1;align=left;verticalAlign=middle;resizable=0;points=[];autosize=1;strokeColor=none;fillColor=none;fontSize=6;" vertex="1" parent="1">
                    <mxGeometry x="525" y="600" width="50" height="20" as="geometry"/>
                </mxCell>
                <mxCell id="227" value="ISSUE_ID" style="text;html=1;align=center;verticalAlign=middle;resizable=0;points=[];autosize=1;strokeColor=none;fillColor=none;fontSize=6;" vertex="1" parent="1">
                    <mxGeometry x="830" y="600" width="50" height="20" as="geometry"/>
                </mxCell>
                <mxCell id="231" value="ASSIGNATION_DATE" style="text;html=1;align=left;verticalAlign=middle;resizable=0;points=[];autosize=1;strokeColor=none;fillColor=none;fontSize=6;" vertex="1" parent="1">
                    <mxGeometry x="945" y="600" width="80" height="20" as="geometry"/>
                </mxCell>
                <mxCell id="232" value="" style="ellipse;whiteSpace=wrap;html=1;fontSize=12;fillColor=#FFFFFF;fillStyle=hatch;" vertex="1" parent="1">
                    <mxGeometry x="325" y="650" width="20" height="20" as="geometry"/>
                </mxCell>
                <mxCell id="233" value="USER_NAME" style="text;html=1;align=left;verticalAlign=middle;resizable=0;points=[];autosize=1;strokeColor=none;fillColor=none;fontSize=6;" vertex="1" parent="1">
                    <mxGeometry x="355" y="650" width="60" height="20" as="geometry"/>
                </mxCell>
                <mxCell id="235" value="USER_ID" style="text;html=1;align=left;verticalAlign=middle;resizable=0;points=[];autosize=1;strokeColor=none;fillColor=none;fontSize=6;" vertex="1" parent="1">
                    <mxGeometry x="525" y="650" width="50" height="20" as="geometry"/>
                </mxCell>
                <mxCell id="237" value="ISSUE_ID" style="text;html=1;align=center;verticalAlign=middle;resizable=0;points=[];autosize=1;strokeColor=none;fillColor=none;fontSize=6;" vertex="1" parent="1">
                    <mxGeometry x="830" y="650" width="50" height="20" as="geometry"/>
                </mxCell>
                <mxCell id="241" value="ASSIGNATION_DATE" style="text;html=1;align=left;verticalAlign=middle;resizable=0;points=[];autosize=1;strokeColor=none;fillColor=none;fontSize=6;" vertex="1" parent="1">
                    <mxGeometry x="945" y="650" width="80" height="20" as="geometry"/>
                </mxCell>
                <mxCell id="242" value="" style="ellipse;whiteSpace=wrap;html=1;fontSize=12;fillColor=#FFFFFF;fillStyle=hatch;" vertex="1" parent="1">
                    <mxGeometry x="325" y="700" width="20" height="20" as="geometry"/>
                </mxCell>
                <mxCell id="243" value="USER_NAME" style="text;html=1;align=left;verticalAlign=middle;resizable=0;points=[];autosize=1;strokeColor=none;fillColor=none;fontSize=6;" vertex="1" parent="1">
                    <mxGeometry x="355" y="700" width="60" height="20" as="geometry"/>
                </mxCell>
                <mxCell id="245" value="USER_ID" style="text;html=1;align=left;verticalAlign=middle;resizable=0;points=[];autosize=1;strokeColor=none;fillColor=none;fontSize=6;" vertex="1" parent="1">
                    <mxGeometry x="525" y="700" width="50" height="20" as="geometry"/>
                </mxCell>
                <mxCell id="247" value="ISSUE_ID" style="text;html=1;align=center;verticalAlign=middle;resizable=0;points=[];autosize=1;strokeColor=none;fillColor=none;fontSize=6;" vertex="1" parent="1">
                    <mxGeometry x="830" y="700" width="50" height="20" as="geometry"/>
                </mxCell>
                <mxCell id="251" value="ASSIGNATION_DATE" style="text;html=1;align=left;verticalAlign=middle;resizable=0;points=[];autosize=1;strokeColor=none;fillColor=none;fontSize=6;" vertex="1" parent="1">
                    <mxGeometry x="945" y="700" width="80" height="20" as="geometry"/>
                </mxCell>
                <mxCell id="252" value="USER_EMAIL" style="text;html=1;align=left;verticalAlign=middle;resizable=0;points=[];autosize=1;strokeColor=none;fillColor=none;fontSize=6;" vertex="1" parent="1">
                    <mxGeometry x="650" y="450" width="60" height="20" as="geometry"/>
                </mxCell>
                <mxCell id="253" value="USER_EMAIL" style="text;html=1;align=left;verticalAlign=middle;resizable=0;points=[];autosize=1;strokeColor=none;fillColor=none;fontSize=6;" vertex="1" parent="1">
                    <mxGeometry x="650" y="500" width="60" height="20" as="geometry"/>
                </mxCell>
                <mxCell id="254" value="USER_EMAIL" style="text;html=1;align=left;verticalAlign=middle;resizable=0;points=[];autosize=1;strokeColor=none;fillColor=none;fontSize=6;" vertex="1" parent="1">
                    <mxGeometry x="650" y="550" width="60" height="20" as="geometry"/>
                </mxCell>
                <mxCell id="255" value="USER_EMAIL" style="text;html=1;align=left;verticalAlign=middle;resizable=0;points=[];autosize=1;strokeColor=none;fillColor=none;fontSize=6;" vertex="1" parent="1">
                    <mxGeometry x="650" y="600" width="60" height="20" as="geometry"/>
                </mxCell>
                <mxCell id="256" value="USER_EMAIL" style="text;html=1;align=left;verticalAlign=middle;resizable=0;points=[];autosize=1;strokeColor=none;fillColor=none;fontSize=6;" vertex="1" parent="1">
                    <mxGeometry x="650" y="650" width="60" height="20" as="geometry"/>
                </mxCell>
                <mxCell id="257" value="USER_EMAIL" style="text;html=1;align=left;verticalAlign=middle;resizable=0;points=[];autosize=1;strokeColor=none;fillColor=none;fontSize=6;" vertex="1" parent="1">
                    <mxGeometry x="650" y="700" width="60" height="20" as="geometry"/>
                </mxCell>
            </root>
        </mxGraphModel>
    </diagram>
</mxfile>